<svg width="1200" height="600" viewBox="0 0 1200 600" fill="none" xmlns="http://www.w3.org/2000/svg">
<g clip-path="url(#clip0)">
<rect width="1200" height="600" fill="url(#paint0_linear)"/>
<path d="M861 39.5C829.07 33.6915 827.454 89.8659 795 90C762.111 90.1359 769.511 38.5216 780.184 -1.5H1200.5V337.535C1198.02 339.757 1195.05 341.053 1191.5 341C1171.24 340.696 1184.07 299.803 1164 297C1139.89 293.632 1153.28 338.678 1132 350.5C1090.57 373.515 1144 222.609 1098 234C1068.43 241.322 1080.32 285.779 1052 297C1001.16 317.14 1094.67 156.468 1040 157.5C1005.63 158.149 1006.88 213.932 972.5 214C921.497 214.101 982.278 85.2122 931.5 90C899.323 93.0339 903.682 149.972 871.5 147C829.498 143.122 902.5 47.0495 861 39.5Z" fill="white"/>
<path d="M912.685 489.079L1133.94 369.057C1135.54 368.227 1136.88 366.983 1137.83 365.455C1138.78 363.928 1139.3 362.172 1139.34 360.373C1139.38 358.574 1138.94 356.797 1138.06 355.228C1137.18 353.658 1135.9 352.355 1134.34 351.453L919.851 223.072C918.21 222.097 916.342 221.57 914.434 221.544C912.525 221.518 910.644 221.994 908.977 222.924L674.926 354.16C673.334 355.021 672.003 356.297 671.076 357.853C670.149 359.409 669.659 361.187 669.659 362.999C669.659 364.811 670.149 366.59 671.076 368.146C672.003 369.702 673.334 370.978 674.926 371.839L883.623 488.872C888.06 491.349 893.048 492.666 898.128 492.702C903.207 492.739 908.214 491.493 912.685 489.079Z" fill="#00275E"/>
<path d="M875.231 310.814C875.231 310.814 830.477 334.736 819.884 391.81C819.884 391.81 863.47 401.056 921.831 352.725" fill="#EB773A"/>
<path d="M874.669 318.093C874.669 318.093 855.58 335.239 850.202 347.34C844.824 359.441 837.806 377.15 837.806 377.15C837.806 377.15 871.419 380.02 903.023 360.655C934.626 341.289 904.5 305.074 874.669 318.093Z" fill="#FFAE46"/>
<path d="M893.64 312.072C892.488 314.01 872.822 325.105 869.143 341.112L875.556 336.245C875.556 336.245 864.652 351.542 860.027 360.344C860.027 360.344 886.622 349.737 885.795 350.373L878.274 356.083C878.274 356.083 898.501 355.654 912.257 343.346C926.012 331.037 907.1 309.572 907.1 309.572L893.64 312.072Z" fill="#FAD374"/>
<path d="M952.992 311.924C952.992 311.924 949.519 334.484 942.088 340.032C934.656 345.58 910.528 363.968 910.528 363.968L906.524 358.672C906.524 358.672 923.161 328.981 926.101 315.874C929.041 302.766 952.992 311.924 952.992 311.924Z" fill="#68E1FD"/>
<path opacity="0.61" d="M952.992 311.924C952.992 311.924 949.519 334.484 942.088 340.032C934.656 345.58 910.528 363.968 910.528 363.968L906.524 358.672C906.524 358.672 923.161 328.981 926.101 315.874C929.041 302.766 952.992 311.924 952.992 311.924Z" fill="#363636"/>
<path d="M928.967 280.176C928.967 280.176 906.332 277.425 898.915 283.135C891.498 288.845 867.356 307.071 867.356 307.071L871.36 312.368C871.36 312.368 904.411 304.364 917.812 305.089C931.213 305.814 928.967 280.176 928.967 280.176Z" fill="#68E1FD"/>
<path opacity="0.61" d="M928.967 280.176C928.967 280.176 906.332 277.425 898.915 283.135C891.498 288.845 867.356 307.071 867.356 307.071L871.36 312.368C871.36 312.368 904.411 304.364 917.812 305.089C931.213 305.814 928.967 280.176 928.967 280.176Z" fill="#363636"/>
<path d="M1037.64 242.304C1043.62 232.945 1048.45 222.896 1052.03 212.376C1052.03 212.376 1038.88 212.524 1019.23 218.383C1020.79 228.398 1028.79 236.387 1037.64 242.304Z" fill="#68E1FD"/>
<path d="M984.923 282.964C991.167 278.227 991.87 268.628 986.494 261.523C981.118 254.418 971.698 252.498 965.454 257.235C959.21 261.972 958.507 271.571 963.883 278.676C969.259 285.781 978.679 287.701 984.923 282.964Z" fill="#68E1FD"/>
<path d="M1097.95 176.96C1097.95 176.96 974.135 207.79 911.223 299.068C911.223 299.068 896.448 314.853 903.584 323.626C910.72 332.398 934.508 325.416 934.508 325.416C934.508 325.416 1012.68 303.195 1097.95 176.96Z" fill="#68E1FD"/>
<path d="M911.223 299.068C911.223 299.068 895.62 297.174 890.538 301.065C885.455 304.956 868.789 317.56 868.789 317.56L871.552 321.214C871.552 321.214 894.335 315.696 903.554 316.199C912.774 316.702 911.223 299.068 911.223 299.068Z" fill="#68E1FD"/>
<path d="M930.016 323.907C930.016 323.907 927.623 339.455 922.496 343.331C917.369 347.207 900.747 359.826 900.747 359.826L897.999 356.216C897.999 356.216 909.464 335.757 911.489 326.718C913.513 317.679 930.016 323.907 930.016 323.907Z" fill="#68E1FD"/>
<path opacity="0.29" d="M911.223 299.068C911.223 299.068 895.62 297.174 890.538 301.065C885.455 304.956 868.789 317.56 868.789 317.56L871.552 321.214C871.552 321.214 894.335 315.696 903.554 316.199C912.774 316.702 911.223 299.068 911.223 299.068Z" fill="#363636"/>
<path opacity="0.29" d="M930.016 323.907C930.016 323.907 927.623 339.455 922.496 343.331C917.369 347.207 900.747 359.826 900.747 359.826L897.999 356.216C897.999 356.216 909.464 335.757 911.489 326.718C913.513 317.679 930.016 323.907 930.016 323.907Z" fill="#363636"/>
<path d="M1037.8 199.195C1037.8 199.195 1037.37 220.158 1059.53 227.925L1046.68 242.541C1046.68 242.541 1018.84 226.874 1023.16 206.296L1037.8 199.195Z" fill="#68E1FD"/>
<path d="M958.296 247.793C958.296 247.793 958.547 283.298 991.613 293.402L967.057 310.208C967.057 310.208 931.597 297.884 938.172 266.3L958.296 247.793Z" fill="#68E1FD"/>
<path d="M1018.06 242.674C1020.26 241.006 1020.69 237.87 1019.03 235.669C1017.36 233.467 1014.23 233.035 1012.03 234.703C1009.83 236.37 1009.4 239.507 1011.07 241.708C1012.73 243.909 1015.87 244.341 1018.06 242.674Z" fill="#68E1FD"/>
<path d="M999.929 268.865C1005.69 264.541 1006.85 256.363 1002.54 250.598C998.217 244.833 990.049 243.664 984.291 247.988C978.533 252.312 977.366 260.49 981.685 266.255C986.003 272.02 994.171 273.189 999.929 268.865Z" fill="#68E1FD"/>
<path opacity="0.61" d="M1037.8 199.195C1037.8 199.195 1037.37 220.158 1059.53 227.925L1046.68 242.541C1046.68 242.541 1018.84 226.874 1023.16 206.296L1037.8 199.195Z" fill="#606060"/>
<path opacity="0.61" d="M958.296 247.793C958.296 247.793 958.547 283.298 991.613 293.402L967.057 310.208C967.057 310.208 931.597 297.884 938.172 266.3L958.296 247.793Z" fill="#606060"/>
<path opacity="0.61" d="M1018.06 242.674C1020.26 241.006 1020.69 237.87 1019.03 235.669C1017.36 233.467 1014.23 233.035 1012.03 234.703C1009.83 236.37 1009.4 239.507 1011.07 241.708C1012.73 243.909 1015.87 244.341 1018.06 242.674Z" fill="#606060"/>
<path opacity="0.61" d="M999.929 268.865C1005.69 264.541 1006.85 256.363 1002.54 250.598C998.217 244.833 990.049 243.664 984.291 247.988C978.533 252.312 977.366 260.49 981.685 266.255C986.003 272.02 994.171 273.189 999.929 268.865Z" fill="#606060"/>
<path d="M1061.56 333.922C1061.17 333.922 1060.79 334.078 1060.51 334.355C1060.24 334.633 1060.08 335.009 1060.08 335.402C1060.08 335.794 1060.24 336.17 1060.51 336.448C1060.79 336.725 1061.17 336.881 1061.56 336.881C1061.95 336.881 1062.33 336.725 1062.6 336.448C1062.88 336.17 1063.04 335.794 1063.04 335.402C1063.04 335.009 1062.88 334.633 1062.6 334.355C1062.33 334.078 1061.95 333.922 1061.56 333.922Z" fill="white"/>
<path d="M986.708 392.846V393.793C986.708 394.185 986.864 394.561 987.141 394.839C987.418 395.116 987.794 395.272 988.186 395.272C988.578 395.272 988.953 395.116 989.23 394.839C989.507 394.561 989.663 394.185 989.663 393.793V392.846C989.663 392.453 989.507 392.077 989.23 391.8C988.953 391.522 988.578 391.366 988.186 391.366C987.794 391.366 987.418 391.522 987.141 391.8C986.864 392.077 986.708 392.453 986.708 392.846Z" fill="white"/>
<path d="M883.224 416.398V417.344C883.224 417.737 883.38 418.113 883.657 418.39C883.934 418.668 884.31 418.824 884.701 418.824C885.093 418.824 885.469 418.668 885.746 418.39C886.023 418.113 886.179 417.737 886.179 417.344V416.398C886.179 416.005 886.023 415.629 885.746 415.351C885.469 415.074 885.093 414.918 884.701 414.918C884.31 414.918 883.934 415.074 883.657 415.351C883.38 415.629 883.224 416.005 883.224 416.398Z" fill="white"/>
<path d="M979.72 344.278C979.328 344.278 978.952 344.434 978.675 344.711C978.398 344.989 978.242 345.365 978.242 345.757C978.242 346.15 978.398 346.526 978.675 346.803C978.952 347.081 979.328 347.237 979.72 347.237C980.111 347.237 980.487 347.081 980.764 346.803C981.041 346.526 981.197 346.15 981.197 345.757C981.197 345.365 981.041 344.989 980.764 344.711C980.487 344.434 980.111 344.278 979.72 344.278Z" fill="white"/>
<path d="M802.863 341.423C802.471 341.423 802.095 341.578 801.818 341.856C801.541 342.133 801.385 342.51 801.385 342.902C801.385 343.294 801.541 343.671 801.818 343.948C802.095 344.225 802.471 344.381 802.863 344.381C803.255 344.381 803.63 344.225 803.908 343.948C804.185 343.671 804.34 343.294 804.34 342.902C804.34 342.51 804.185 342.133 803.908 341.856C803.63 341.578 803.255 341.423 802.863 341.423Z" fill="white"/>
<path d="M736.464 345.757V346.704C736.464 347.096 736.62 347.473 736.897 347.75C737.174 348.027 737.55 348.183 737.941 348.183C738.333 348.183 738.709 348.027 738.986 347.75C739.263 347.473 739.419 347.096 739.419 346.704V345.757C739.419 345.365 739.263 344.989 738.986 344.711C738.709 344.434 738.333 344.278 737.941 344.278C737.55 344.278 737.174 344.434 736.897 344.711C736.62 344.989 736.464 345.365 736.464 345.757Z" fill="white"/>
<path d="M768.053 392.313C767.661 392.313 767.285 392.469 767.008 392.747C766.731 393.024 766.575 393.4 766.575 393.793C766.575 394.185 766.731 394.561 767.008 394.839C767.285 395.116 767.661 395.272 768.053 395.272C768.445 395.272 768.821 395.116 769.098 394.839C769.375 394.561 769.53 394.185 769.53 393.793C769.53 393.4 769.375 393.024 769.098 392.747C768.821 392.469 768.445 392.313 768.053 392.313Z" fill="white"/>
<path d="M816.973 308.477C816.581 308.477 816.205 308.633 815.928 308.91C815.651 309.188 815.495 309.564 815.495 309.956C815.495 310.349 815.651 310.725 815.928 311.002C816.205 311.28 816.581 311.436 816.973 311.436C817.365 311.436 817.741 311.28 818.018 311.002C818.295 310.725 818.45 310.349 818.45 309.956C818.45 309.564 818.295 309.188 818.018 308.91C817.741 308.633 817.365 308.477 816.973 308.477Z" fill="white"/>
<path d="M889.4 261.388C889.008 261.388 888.632 261.544 888.355 261.821C888.078 262.099 887.922 262.475 887.922 262.868C887.922 263.26 888.078 263.636 888.355 263.914C888.632 264.191 889.008 264.347 889.4 264.347C889.792 264.347 890.168 264.191 890.445 263.914C890.722 263.636 890.878 263.26 890.878 262.868C890.878 262.475 890.722 262.099 890.445 261.821C890.168 261.544 889.792 261.388 889.4 261.388Z" fill="white"/>
<path d="M933.622 446C933.23 446 932.854 446.156 932.577 446.433C932.3 446.711 932.144 447.087 932.144 447.479C932.144 447.872 932.3 448.248 932.577 448.525C932.854 448.803 933.23 448.959 933.622 448.959C934.013 448.959 934.389 448.803 934.666 448.525C934.943 448.248 935.099 447.872 935.099 447.479C935.099 447.087 934.943 446.711 934.666 446.433C934.389 446.156 934.013 446 933.622 446Z" fill="white"/>
<path d="M1031.45 362.844C1021.95 362.844 1021.92 377.638 1031.45 377.638C1040.98 377.638 1040.98 362.844 1031.45 362.844Z" fill="#FFAE46"/>
<path d="M766.176 354.367C756.676 354.367 756.647 369.161 766.176 369.161C775.706 369.161 775.692 354.367 766.176 354.367Z" fill="#FFAE46"/>
<path d="M907.795 451.666C906.41 450.279 904.531 449.5 902.572 449.5C900.613 449.5 898.734 450.279 897.349 451.666C895.991 453.073 895.219 454.946 895.192 456.903V457.85C895.213 459.808 895.986 461.683 897.349 463.087C898.734 464.473 900.613 465.252 902.572 465.252C904.531 465.252 906.41 464.473 907.795 463.087C909.153 461.679 909.924 459.807 909.952 457.85V456.903C909.93 454.945 909.158 453.07 907.795 451.666Z" fill="#00AEE1"/>
<path d="M772.633 253.755C790.422 253.755 804.843 239.316 804.843 221.504C804.843 203.693 790.422 189.254 772.633 189.254C754.844 189.254 740.424 203.693 740.424 221.504C740.424 239.316 754.844 253.755 772.633 253.755Z" fill="#68E1FD"/>
<path d="M798.829 203.766C802.228 202.828 805.682 202.107 809.172 201.607C810.924 201.34 812.69 201.172 814.461 201.104C816.3 201 818.144 201.109 819.957 201.429C821.006 201.607 822.01 201.989 822.912 202.553C823.456 202.912 823.919 203.381 824.272 203.929C824.642 204.527 824.855 205.209 824.892 205.912C824.905 207.073 824.637 208.22 824.109 209.255C823.691 210.135 823.197 210.976 822.632 211.77C820.391 214.651 817.801 217.24 814.919 219.477C809.388 223.886 803.514 227.843 797.352 231.312C791.255 234.842 784.977 238.046 778.543 240.914C772.108 243.829 765.501 246.348 758.759 248.458C755.362 249.544 751.91 250.448 748.417 251.166C744.838 251.952 741.201 252.452 737.542 252.66C735.668 252.756 733.789 252.682 731.928 252.438C729.938 252.212 728 251.652 726.195 250.781C725.204 250.304 724.296 249.669 723.506 248.902C722.62 248.025 721.983 246.927 721.659 245.722C721.374 244.57 721.374 243.367 721.659 242.215C721.902 241.215 722.275 240.25 722.767 239.345C724.715 236.197 727.218 233.43 730.155 231.179C732.867 228.93 735.769 226.921 738.828 225.173C736.294 227.517 733.877 229.986 731.588 232.57C729.298 235.015 727.4 237.799 725.959 240.825C725.379 241.978 725.242 243.305 725.575 244.553C725.765 245.016 726.07 245.423 726.461 245.736C726.967 246.13 727.524 246.454 728.116 246.698C731.055 247.673 734.177 247.972 737.247 247.571C743.939 246.792 750.524 245.274 756.883 243.044C763.384 240.943 769.722 238.31 776.09 235.647C788.691 230.242 800.752 223.654 812.112 215.971C814.84 214.084 817.361 211.912 819.632 209.492C820.136 208.925 820.591 208.316 820.992 207.672C821.306 207.177 821.517 206.623 821.612 206.045C821.626 205.847 821.586 205.65 821.498 205.473C821.409 205.296 821.276 205.146 821.11 205.039C820.552 204.632 819.927 204.327 819.263 204.136C815.995 203.349 812.632 203.031 809.275 203.189C805.773 203.204 802.301 203.411 798.829 203.766Z" fill="#8CC63F"/>
<path d="M68.35 238.95V245H43.7V209.5H67.9V215.55H50.6V224.1H65.55V229.7H50.6V238.95H68.35ZM97.2828 245H90.5828V230.3C90.5828 228.2 90.2161 226.667 89.4828 225.7C88.7495 224.733 87.7328 224.25 86.4328 224.25C85.5328 224.25 84.6161 224.483 83.6828 224.95C82.7828 225.417 81.9661 226.067 81.2328 226.9C80.4995 227.7 79.9661 228.633 79.6328 229.7V245H72.9328V218.8H78.9828V223.65C79.9495 222.017 81.3495 220.733 83.1828 219.8C85.0161 218.833 87.0828 218.35 89.3828 218.35C91.0161 218.35 92.3495 218.65 93.3828 219.25C94.4161 219.817 95.2161 220.6 95.7828 221.6C96.3495 222.567 96.7328 223.667 96.9328 224.9C97.1661 226.133 97.2828 227.383 97.2828 228.65V245ZM118.662 243.65C117.762 244.05 116.645 244.45 115.312 244.85C114.012 245.25 112.662 245.45 111.262 245.45C110.029 245.45 108.895 245.233 107.862 244.8C106.829 244.367 105.995 243.683 105.362 242.75C104.762 241.783 104.462 240.533 104.462 239V223.95H101.012V218.8H104.462V210.3H111.162V218.8H116.662V223.95H111.162V236.75C111.162 237.65 111.395 238.3 111.862 238.7C112.362 239.1 112.962 239.3 113.662 239.3C114.362 239.3 115.045 239.183 115.712 238.95C116.379 238.717 116.912 238.517 117.312 238.35L118.662 243.65ZM137.752 224.6C135.718 224.6 133.902 225 132.302 225.8C130.702 226.567 129.552 227.683 128.852 229.15V245H122.152V218.8H128.302V224.4C129.202 222.6 130.368 221.183 131.802 220.15C133.268 219.117 134.802 218.55 136.402 218.45C137.102 218.45 137.552 218.467 137.752 218.5V224.6ZM139.541 237.25C139.541 235.55 140.008 234.067 140.941 232.8C141.908 231.5 143.241 230.5 144.941 229.8C146.641 229.1 148.591 228.75 150.791 228.75C151.891 228.75 153.008 228.85 154.141 229.05C155.274 229.217 156.258 229.467 157.091 229.8V228.4C157.091 226.733 156.591 225.45 155.591 224.55C154.624 223.65 153.174 223.2 151.241 223.2C149.808 223.2 148.441 223.45 147.141 223.95C145.841 224.45 144.474 225.183 143.041 226.15L140.891 221.75C142.624 220.617 144.391 219.767 146.191 219.2C148.024 218.633 149.941 218.35 151.941 218.35C155.674 218.35 158.574 219.283 160.641 221.15C162.741 223.017 163.791 225.683 163.791 229.15V237.5C163.791 238.233 163.908 238.75 164.141 239.05C164.374 239.317 164.791 239.483 165.391 239.55V245C164.791 245.133 164.241 245.217 163.741 245.25C163.274 245.317 162.874 245.35 162.541 245.35C161.208 245.35 160.191 245.05 159.491 244.45C158.791 243.85 158.374 243.117 158.241 242.25L158.091 240.9C156.924 242.4 155.491 243.55 153.791 244.35C152.124 245.117 150.408 245.5 148.641 245.5C146.874 245.5 145.308 245.15 143.941 244.45C142.574 243.717 141.491 242.733 140.691 241.5C139.924 240.233 139.541 238.817 139.541 237.25ZM155.841 238.6C156.674 237.8 157.091 237.033 157.091 236.3V233.65C155.358 232.95 153.608 232.6 151.841 232.6C150.074 232.6 148.641 232.983 147.541 233.75C146.441 234.483 145.891 235.467 145.891 236.7C145.891 237.7 146.291 238.6 147.091 239.4C147.891 240.2 149.041 240.6 150.541 240.6C151.541 240.6 152.508 240.417 153.441 240.05C154.408 239.683 155.208 239.2 155.841 238.6ZM180.264 237.25C180.264 235.55 180.73 234.067 181.664 232.8C182.63 231.5 183.964 230.5 185.664 229.8C187.364 229.1 189.314 228.75 191.514 228.75C192.614 228.75 193.73 228.85 194.864 229.05C195.997 229.217 196.98 229.467 197.814 229.8V228.4C197.814 226.733 197.314 225.45 196.314 224.55C195.347 223.65 193.897 223.2 191.964 223.2C190.53 223.2 189.164 223.45 187.864 223.95C186.564 224.45 185.197 225.183 183.764 226.15L181.614 221.75C183.347 220.617 185.114 219.767 186.914 219.2C188.747 218.633 190.664 218.35 192.664 218.35C196.397 218.35 199.297 219.283 201.364 221.15C203.464 223.017 204.514 225.683 204.514 229.15V237.5C204.514 238.233 204.63 238.75 204.864 239.05C205.097 239.317 205.514 239.483 206.114 239.55V245C205.514 245.133 204.964 245.217 204.464 245.25C203.997 245.317 203.597 245.35 203.264 245.35C201.93 245.35 200.914 245.05 200.214 244.45C199.514 243.85 199.097 243.117 198.964 242.25L198.814 240.9C197.647 242.4 196.214 243.55 194.514 244.35C192.847 245.117 191.13 245.5 189.364 245.5C187.597 245.5 186.03 245.15 184.664 244.45C183.297 243.717 182.214 242.733 181.414 241.5C180.647 240.233 180.264 238.817 180.264 237.25ZM196.564 238.6C197.397 237.8 197.814 237.033 197.814 236.3V233.65C196.08 232.95 194.33 232.6 192.564 232.6C190.797 232.6 189.364 232.983 188.264 233.75C187.164 234.483 186.614 235.467 186.614 236.7C186.614 237.7 187.014 238.6 187.814 239.4C188.614 240.2 189.764 240.6 191.264 240.6C192.264 240.6 193.23 240.417 194.164 240.05C195.13 239.683 195.93 239.2 196.564 238.6ZM235.125 245H228.425V230.3C228.425 228.267 228.025 226.75 227.225 225.75C226.458 224.75 225.391 224.25 224.025 224.25C223.191 224.25 222.325 224.483 221.425 224.95C220.558 225.417 219.758 226.067 219.025 226.9C218.325 227.7 217.808 228.633 217.475 229.7V245H210.775V208.5H217.475V223.65C218.441 221.983 219.758 220.683 221.425 219.75C223.091 218.817 224.908 218.35 226.875 218.35C229.108 218.35 230.825 218.85 232.025 219.85C233.225 220.85 234.041 222.133 234.475 223.7C234.908 225.267 235.125 226.917 235.125 228.65V245ZM253.05 245.5C250.184 245.5 247.717 244.883 245.65 243.65C243.617 242.383 242.05 240.717 240.95 238.65C239.85 236.583 239.3 234.35 239.3 231.95C239.3 229.517 239.85 227.267 240.95 225.2C242.084 223.133 243.667 221.483 245.7 220.25C247.767 218.983 250.217 218.35 253.05 218.35C255.884 218.35 258.317 218.983 260.35 220.25C262.417 221.483 264 223.133 265.1 225.2C266.2 227.267 266.75 229.517 266.75 231.95C266.75 234.35 266.2 236.583 265.1 238.65C264 240.717 262.417 242.383 260.35 243.65C258.317 244.883 255.884 245.5 253.05 245.5ZM246.2 231.95C246.2 233.483 246.5 234.85 247.1 236.05C247.7 237.217 248.517 238.133 249.55 238.8C250.584 239.467 251.75 239.8 253.05 239.8C254.317 239.8 255.467 239.467 256.5 238.8C257.534 238.1 258.35 237.167 258.95 236C259.584 234.8 259.9 233.433 259.9 231.9C259.9 230.4 259.584 229.067 258.95 227.9C258.35 226.7 257.534 225.767 256.5 225.1C255.467 224.4 254.317 224.05 253.05 224.05C251.75 224.05 250.584 224.4 249.55 225.1C248.517 225.767 247.7 226.7 247.1 227.9C246.5 229.067 246.2 230.417 246.2 231.95ZM286.873 224.6C284.839 224.6 283.023 225 281.423 225.8C279.823 226.567 278.673 227.683 277.973 229.15V245H271.273V218.8H277.423V224.4C278.323 222.6 279.489 221.183 280.923 220.15C282.389 219.117 283.923 218.55 285.523 218.45C286.223 218.45 286.673 218.467 286.873 218.5V224.6ZM288.662 237.25C288.662 235.55 289.129 234.067 290.062 232.8C291.029 231.5 292.362 230.5 294.062 229.8C295.762 229.1 297.712 228.75 299.912 228.75C301.012 228.75 302.129 228.85 303.262 229.05C304.395 229.217 305.379 229.467 306.212 229.8V228.4C306.212 226.733 305.712 225.45 304.712 224.55C303.745 223.65 302.295 223.2 300.362 223.2C298.929 223.2 297.562 223.45 296.262 223.95C294.962 224.45 293.595 225.183 292.162 226.15L290.012 221.75C291.745 220.617 293.512 219.767 295.312 219.2C297.145 218.633 299.062 218.35 301.062 218.35C304.795 218.35 307.695 219.283 309.762 221.15C311.862 223.017 312.912 225.683 312.912 229.15V237.5C312.912 238.233 313.029 238.75 313.262 239.05C313.495 239.317 313.912 239.483 314.512 239.55V245C313.912 245.133 313.362 245.217 312.862 245.25C312.395 245.317 311.995 245.35 311.662 245.35C310.329 245.35 309.312 245.05 308.612 244.45C307.912 243.85 307.495 243.117 307.362 242.25L307.212 240.9C306.045 242.4 304.612 243.55 302.912 244.35C301.245 245.117 299.529 245.5 297.762 245.5C295.995 245.5 294.429 245.15 293.062 244.45C291.695 243.717 290.612 242.733 289.812 241.5C289.045 240.233 288.662 238.817 288.662 237.25ZM304.962 238.6C305.795 237.8 306.212 237.033 306.212 236.3V233.65C304.479 232.95 302.729 232.6 300.962 232.6C299.195 232.6 297.762 232.983 296.662 233.75C295.562 234.483 295.012 235.467 295.012 236.7C295.012 237.7 295.412 238.6 296.212 239.4C297.012 240.2 298.162 240.6 299.662 240.6C300.662 240.6 301.629 240.417 302.562 240.05C303.529 239.683 304.329 239.2 304.962 238.6ZM343.335 245.5C340.501 245.5 338.051 244.883 335.985 243.65C333.951 242.417 332.368 240.783 331.235 238.75C330.101 236.683 329.535 234.45 329.535 232.05C329.535 229.583 330.085 227.317 331.185 225.25C332.318 223.15 333.918 221.483 335.985 220.25C338.051 218.983 340.518 218.35 343.385 218.35C346.251 218.35 348.701 218.983 350.735 220.25C352.768 221.483 354.318 223.133 355.385 225.2C356.485 227.233 357.035 229.433 357.035 231.8C357.035 232.667 356.985 233.417 356.885 234.05H336.635C336.801 236.083 337.551 237.683 338.885 238.85C340.251 240.017 341.818 240.6 343.585 240.6C344.918 240.6 346.168 240.283 347.335 239.65C348.535 238.983 349.351 238.117 349.785 237.05L355.535 238.65C354.568 240.65 353.018 242.3 350.885 243.6C348.751 244.867 346.235 245.5 343.335 245.5ZM336.485 229.8H350.185C349.985 227.833 349.235 226.25 347.935 225.05C346.668 223.817 345.118 223.2 343.285 223.2C341.485 223.2 339.935 223.817 338.635 225.05C337.368 226.25 336.651 227.833 336.485 229.8ZM370.766 245.5C368.533 245.5 366.4 245.133 364.366 244.4C362.333 243.667 360.583 242.583 359.116 241.15L361.516 236.8C363.083 238.067 364.616 239 366.116 239.6C367.616 240.2 369.083 240.5 370.516 240.5C371.816 240.5 372.85 240.267 373.616 239.8C374.416 239.333 374.816 238.633 374.816 237.7C374.816 236.733 374.333 236.083 373.366 235.75C372.4 235.383 371.05 234.933 369.316 234.4C367.383 233.8 365.766 233.183 364.466 232.55C363.166 231.917 362.183 231.15 361.516 230.25C360.883 229.35 360.566 228.183 360.566 226.75C360.566 224.183 361.533 222.133 363.466 220.6C365.4 219.067 367.966 218.3 371.166 218.3C373.033 218.3 374.8 218.6 376.466 219.2C378.133 219.767 379.65 220.7 381.016 222L378.316 226.25C375.75 224.25 373.266 223.25 370.866 223.25C369.8 223.25 368.85 223.45 368.016 223.85C367.216 224.25 366.816 224.95 366.816 225.95C366.816 226.883 367.2 227.55 367.966 227.95C368.766 228.35 369.966 228.783 371.566 229.25C373.633 229.883 375.383 230.5 376.816 231.1C378.283 231.7 379.383 232.467 380.116 233.4C380.883 234.333 381.266 235.6 381.266 237.2C381.266 239.8 380.316 241.833 378.416 243.3C376.516 244.767 373.966 245.5 370.766 245.5ZM413.535 243.65C412.635 244.05 411.518 244.45 410.185 244.85C408.885 245.25 407.535 245.45 406.135 245.45C404.902 245.45 403.768 245.233 402.735 244.8C401.702 244.367 400.868 243.683 400.235 242.75C399.635 241.783 399.335 240.533 399.335 239V223.95H395.885V218.8H399.335V210.3H406.035V218.8H411.535V223.95H406.035V236.75C406.035 237.65 406.268 238.3 406.735 238.7C407.235 239.1 407.835 239.3 408.535 239.3C409.235 239.3 409.918 239.183 410.585 238.95C411.252 238.717 411.785 238.517 412.185 238.35L413.535 243.65ZM416.775 235.2V218.8H423.475V233.75C423.475 237.783 424.925 239.8 427.825 239.8C429.125 239.8 430.375 239.417 431.575 238.65C432.808 237.85 433.808 236.65 434.575 235.05V218.8H441.275V237.5C441.275 238.233 441.391 238.75 441.625 239.05C441.858 239.317 442.275 239.483 442.875 239.55V245C442.208 245.133 441.641 245.217 441.175 245.25C440.741 245.283 440.341 245.3 439.975 245.3C438.775 245.3 437.791 245.033 437.025 244.5C436.291 243.933 435.858 243.167 435.725 242.2L435.575 240.1C434.408 241.9 432.908 243.25 431.075 244.15C429.241 245.05 427.225 245.5 425.025 245.5C422.325 245.5 420.275 244.633 418.875 242.9C417.475 241.133 416.775 238.567 416.775 235.2ZM500.645 245H493.945V230.3C493.945 228.233 493.578 226.717 492.845 225.75C492.145 224.75 491.161 224.25 489.895 224.25C488.561 224.25 487.311 224.767 486.145 225.8C484.978 226.8 484.145 228.117 483.645 229.75V245H476.945V230.3C476.945 228.2 476.578 226.667 475.845 225.7C475.145 224.733 474.161 224.25 472.895 224.25C471.595 224.25 470.345 224.75 469.145 225.75C467.978 226.75 467.145 228.067 466.645 229.7V245H459.945V218.8H465.995V223.65C466.961 221.95 468.278 220.65 469.945 219.75C471.645 218.817 473.578 218.35 475.745 218.35C477.911 218.35 479.595 218.883 480.795 219.95C482.028 221.017 482.811 222.333 483.145 223.9C484.178 222.1 485.528 220.733 487.195 219.8C488.861 218.833 490.728 218.35 492.795 218.35C494.428 218.35 495.745 218.65 496.745 219.25C497.778 219.817 498.578 220.6 499.145 221.6C499.711 222.567 500.095 223.667 500.295 224.9C500.528 226.133 500.645 227.383 500.645 228.65V245ZM518.578 245.5C515.711 245.5 513.244 244.883 511.178 243.65C509.144 242.383 507.578 240.717 506.478 238.65C505.378 236.583 504.828 234.35 504.828 231.95C504.828 229.517 505.378 227.267 506.478 225.2C507.611 223.133 509.194 221.483 511.228 220.25C513.294 218.983 515.744 218.35 518.578 218.35C521.411 218.35 523.844 218.983 525.878 220.25C527.944 221.483 529.528 223.133 530.628 225.2C531.728 227.267 532.278 229.517 532.278 231.95C532.278 234.35 531.728 236.583 530.628 238.65C529.528 240.717 527.944 242.383 525.878 243.65C523.844 244.883 521.411 245.5 518.578 245.5ZM511.728 231.95C511.728 233.483 512.028 234.85 512.628 236.05C513.228 237.217 514.044 238.133 515.078 238.8C516.111 239.467 517.278 239.8 518.578 239.8C519.844 239.8 520.994 239.467 522.028 238.8C523.061 238.1 523.878 237.167 524.478 236C525.111 234.8 525.428 233.433 525.428 231.9C525.428 230.4 525.111 229.067 524.478 227.9C523.878 226.7 523.061 225.767 522.028 225.1C520.994 224.4 519.844 224.05 518.578 224.05C517.278 224.05 516.111 224.4 515.078 225.1C514.044 225.767 513.228 226.7 512.628 227.9C512.028 229.067 511.728 230.417 511.728 231.95ZM577.5 245H570.8V230.3C570.8 228.233 570.433 226.717 569.7 225.75C569 224.75 568.017 224.25 566.75 224.25C565.417 224.25 564.167 224.767 563 225.8C561.833 226.8 561 228.117 560.5 229.75V245H553.8V230.3C553.8 228.2 553.433 226.667 552.7 225.7C552 224.733 551.017 224.25 549.75 224.25C548.45 224.25 547.2 224.75 546 225.75C544.833 226.75 544 228.067 543.5 229.7V245H536.8V218.8H542.85V223.65C543.817 221.95 545.133 220.65 546.8 219.75C548.5 218.817 550.433 218.35 552.6 218.35C554.767 218.35 556.45 218.883 557.65 219.95C558.883 221.017 559.667 222.333 560 223.9C561.033 222.1 562.383 220.733 564.05 219.8C565.717 218.833 567.583 218.35 569.65 218.35C571.283 218.35 572.6 218.65 573.6 219.25C574.633 219.817 575.433 220.6 576 221.6C576.567 222.567 576.95 223.667 577.15 224.9C577.383 226.133 577.5 227.383 577.5 228.65V245ZM595.483 245.5C592.65 245.5 590.2 244.883 588.133 243.65C586.1 242.417 584.517 240.783 583.383 238.75C582.25 236.683 581.683 234.45 581.683 232.05C581.683 229.583 582.233 227.317 583.333 225.25C584.467 223.15 586.067 221.483 588.133 220.25C590.2 218.983 592.667 218.35 595.533 218.35C598.4 218.35 600.85 218.983 602.883 220.25C604.917 221.483 606.467 223.133 607.533 225.2C608.633 227.233 609.183 229.433 609.183 231.8C609.183 232.667 609.133 233.417 609.033 234.05H588.783C588.95 236.083 589.7 237.683 591.033 238.85C592.4 240.017 593.967 240.6 595.733 240.6C597.067 240.6 598.317 240.283 599.483 239.65C600.683 238.983 601.5 238.117 601.933 237.05L607.683 238.65C606.717 240.65 605.167 242.3 603.033 243.6C600.9 244.867 598.383 245.5 595.483 245.5ZM588.633 229.8H602.333C602.133 227.833 601.383 226.25 600.083 225.05C598.817 223.817 597.267 223.2 595.433 223.2C593.633 223.2 592.083 223.817 590.783 225.05C589.517 226.25 588.8 227.833 588.633 229.8ZM637.615 245H630.915V230.3C630.915 228.2 630.548 226.667 629.815 225.7C629.082 224.733 628.065 224.25 626.765 224.25C625.865 224.25 624.948 224.483 624.015 224.95C623.115 225.417 622.298 226.067 621.565 226.9C620.832 227.7 620.298 228.633 619.965 229.7V245H613.265V218.8H619.315V223.65C620.282 222.017 621.682 220.733 623.515 219.8C625.348 218.833 627.415 218.35 629.715 218.35C631.348 218.35 632.682 218.65 633.715 219.25C634.748 219.817 635.548 220.6 636.115 221.6C636.682 222.567 637.065 223.667 637.265 224.9C637.498 226.133 637.615 227.383 637.615 228.65V245ZM658.994 243.65C658.094 244.05 656.977 244.45 655.644 244.85C654.344 245.25 652.994 245.45 651.594 245.45C650.361 245.45 649.227 245.233 648.194 244.8C647.161 244.367 646.327 243.683 645.694 242.75C645.094 241.783 644.794 240.533 644.794 239V223.95H641.344V218.8H644.794V210.3H651.494V218.8H656.994V223.95H651.494V236.75C651.494 237.65 651.727 238.3 652.194 238.7C652.694 239.1 653.294 239.3 653.994 239.3C654.694 239.3 655.377 239.183 656.044 238.95C656.711 238.717 657.244 238.517 657.644 238.35L658.994 243.65ZM674.242 245.5C671.375 245.5 668.908 244.883 666.842 243.65C664.808 242.383 663.242 240.717 662.142 238.65C661.042 236.583 660.492 234.35 660.492 231.95C660.492 229.517 661.042 227.267 662.142 225.2C663.275 223.133 664.858 221.483 666.892 220.25C668.958 218.983 671.408 218.35 674.242 218.35C677.075 218.35 679.508 218.983 681.542 220.25C683.608 221.483 685.192 223.133 686.292 225.2C687.392 227.267 687.942 229.517 687.942 231.95C687.942 234.35 687.392 236.583 686.292 238.65C685.192 240.717 683.608 242.383 681.542 243.65C679.508 244.883 677.075 245.5 674.242 245.5ZM667.392 231.95C667.392 233.483 667.692 234.85 668.292 236.05C668.892 237.217 669.708 238.133 670.742 238.8C671.775 239.467 672.942 239.8 674.242 239.8C675.508 239.8 676.658 239.467 677.692 238.8C678.725 238.1 679.542 237.167 680.142 236C680.775 234.8 681.092 233.433 681.092 231.9C681.092 230.4 680.775 229.067 680.142 227.9C679.542 226.7 678.725 225.767 677.692 225.1C676.658 224.4 675.508 224.05 674.242 224.05C672.942 224.05 671.775 224.4 670.742 225.1C669.708 225.767 668.892 226.7 668.292 227.9C667.692 229.067 667.392 230.417 667.392 231.95Z" fill="white"/>
<path d="M49.03 283.7H51.31L60.01 305H57.13L54.61 298.76H45.67L43.18 305H40.3L49.03 283.7ZM54.01 296.66L50.17 286.82L46.21 296.66H54.01ZM70.8627 305.3C69.5827 305.3 68.4427 304.98 67.4427 304.34C66.4427 303.7 65.6527 302.89 65.0727 301.91V311.39H62.4327V289.34H64.7727V292.28C65.3927 291.32 66.2027 290.55 67.2027 289.97C68.2027 289.37 69.2927 289.07 70.4727 289.07C71.5527 289.07 72.5427 289.29 73.4427 289.73C74.3427 290.17 75.1227 290.77 75.7827 291.53C76.4427 292.29 76.9527 293.16 77.3127 294.14C77.6927 295.1 77.8827 296.11 77.8827 297.17C77.8827 298.65 77.5827 300.01 76.9827 301.25C76.4027 302.49 75.5827 303.48 74.5227 304.22C73.4627 304.94 72.2427 305.3 70.8627 305.3ZM70.0527 303.02C71.0927 303.02 71.9927 302.74 72.7527 302.18C73.5127 301.62 74.1027 300.89 74.5227 299.99C74.9627 299.09 75.1827 298.15 75.1827 297.17C75.1827 296.11 74.9427 295.14 74.4627 294.26C74.0027 293.38 73.3627 292.68 72.5427 292.16C71.7427 291.62 70.8327 291.35 69.8127 291.35C69.1927 291.35 68.5327 291.51 67.8327 291.83C67.1527 292.15 66.5527 292.58 66.0327 293.12C65.5327 293.64 65.2127 294.22 65.0727 294.86V299.33C65.5127 300.37 66.1827 301.25 67.0827 301.97C68.0027 302.67 68.9927 303.02 70.0527 303.02ZM89.4041 291.65C88.0841 291.67 86.9141 292.01 85.8941 292.67C84.8941 293.31 84.1841 294.2 83.7641 295.34V305H81.1241V289.34H83.5841V292.97C84.1241 291.89 84.8341 291.02 85.7141 290.36C86.6141 289.68 87.5541 289.3 88.5341 289.22C88.7341 289.22 88.9041 289.22 89.0441 289.22C89.1841 289.22 89.3041 289.23 89.4041 289.25V291.65ZM98.601 305.3C97.041 305.3 95.661 304.93 94.461 304.19C93.261 303.45 92.321 302.46 91.641 301.22C90.961 299.98 90.621 298.63 90.621 297.17C90.621 295.69 90.961 294.34 91.641 293.12C92.321 291.9 93.261 290.92 94.461 290.18C95.681 289.44 97.071 289.07 98.631 289.07C100.211 289.07 101.581 289.45 102.741 290.21C103.921 290.95 104.831 291.93 105.471 293.15C106.131 294.35 106.461 295.65 106.461 297.05C106.461 297.49 106.441 297.83 106.401 298.07H93.411C93.491 299.09 93.771 300 94.251 300.8C94.751 301.58 95.391 302.2 96.171 302.66C96.951 303.1 97.791 303.32 98.691 303.32C99.651 303.32 100.551 303.08 101.391 302.6C102.251 302.12 102.841 301.49 103.161 300.71L105.441 301.34C104.941 302.5 104.071 303.45 102.831 304.19C101.591 304.93 100.181 305.3 98.601 305.3ZM93.321 296.24H104.001C103.921 295.22 103.631 294.32 103.131 293.54C102.631 292.76 101.991 292.15 101.211 291.71C100.431 291.27 99.571 291.05 98.631 291.05C97.711 291.05 96.861 291.27 96.081 291.71C95.301 292.15 94.661 292.76 94.161 293.54C93.681 294.32 93.401 295.22 93.321 296.24ZM122.986 305H120.346V296.24C120.346 294.58 120.086 293.37 119.566 292.61C119.066 291.83 118.296 291.44 117.256 291.44C116.536 291.44 115.816 291.62 115.096 291.98C114.396 292.34 113.766 292.83 113.206 293.45C112.666 294.05 112.276 294.75 112.036 295.55V305H109.396V289.34H111.796V292.7C112.416 291.6 113.306 290.72 114.466 290.06C115.646 289.4 116.926 289.07 118.306 289.07C119.526 289.07 120.466 289.36 121.126 289.94C121.806 290.5 122.286 291.28 122.566 292.28C122.846 293.26 122.986 294.38 122.986 295.64V305ZM126.071 297.2C126.071 295.72 126.371 294.37 126.971 293.15C127.591 291.91 128.431 290.92 129.491 290.18C130.571 289.44 131.801 289.07 133.181 289.07C134.441 289.07 135.571 289.4 136.571 290.06C137.571 290.72 138.351 291.52 138.911 292.46V283.1H141.551V302C141.551 302.62 141.831 302.94 142.391 302.96V305C141.891 305.08 141.501 305.12 141.221 305.12C140.701 305.12 140.241 304.94 139.841 304.58C139.461 304.22 139.271 303.82 139.271 303.38V302.06C138.651 303.06 137.821 303.85 136.781 304.43C135.741 305.01 134.661 305.3 133.541 305.3C132.101 305.3 130.811 304.93 129.671 304.19C128.551 303.43 127.671 302.44 127.031 301.22C126.391 299.98 126.071 298.64 126.071 297.2ZM138.911 299.51V295.01C138.671 294.33 138.281 293.72 137.741 293.18C137.201 292.62 136.591 292.18 135.911 291.86C135.251 291.52 134.591 291.35 133.931 291.35C132.911 291.35 132.011 291.63 131.231 292.19C130.471 292.75 129.871 293.48 129.431 294.38C129.011 295.28 128.801 296.23 128.801 297.23C128.801 298.27 129.031 299.23 129.491 300.11C129.971 300.99 130.621 301.7 131.441 302.24C132.261 302.76 133.171 303.02 134.171 303.02C134.811 303.02 135.471 302.87 136.151 302.57C136.831 302.25 137.431 301.82 137.951 301.28C138.471 300.74 138.791 300.15 138.911 299.51ZM152.888 305.3C151.328 305.3 149.948 304.93 148.748 304.19C147.548 303.45 146.608 302.46 145.928 301.22C145.248 299.98 144.908 298.63 144.908 297.17C144.908 295.69 145.248 294.34 145.928 293.12C146.608 291.9 147.548 290.92 148.748 290.18C149.968 289.44 151.358 289.07 152.918 289.07C154.498 289.07 155.868 289.45 157.028 290.21C158.208 290.95 159.118 291.93 159.758 293.15C160.418 294.35 160.748 295.65 160.748 297.05C160.748 297.49 160.728 297.83 160.688 298.07H147.698C147.778 299.09 148.058 300 148.538 300.8C149.038 301.58 149.678 302.2 150.458 302.66C151.238 303.1 152.078 303.32 152.978 303.32C153.938 303.32 154.838 303.08 155.678 302.6C156.538 302.12 157.128 301.49 157.448 300.71L159.728 301.34C159.228 302.5 158.358 303.45 157.118 304.19C155.878 304.93 154.468 305.3 152.888 305.3ZM147.608 296.24H158.288C158.208 295.22 157.918 294.32 157.418 293.54C156.918 292.76 156.278 292.15 155.498 291.71C154.718 291.27 153.858 291.05 152.918 291.05C151.998 291.05 151.148 291.27 150.368 291.71C149.588 292.15 148.948 292.76 148.448 293.54C147.968 294.32 147.688 295.22 147.608 296.24ZM170.041 300.47C170.041 299.47 170.321 298.61 170.881 297.89C171.461 297.15 172.251 296.58 173.251 296.18C174.251 295.78 175.411 295.58 176.731 295.58C177.431 295.58 178.171 295.64 178.951 295.76C179.731 295.86 180.421 296.02 181.021 296.24V295.1C181.021 293.9 180.661 292.96 179.941 292.28C179.221 291.58 178.201 291.23 176.881 291.23C176.021 291.23 175.191 291.39 174.391 291.71C173.611 292.01 172.781 292.45 171.901 293.03L170.941 291.17C171.961 290.47 172.981 289.95 174.001 289.61C175.021 289.25 176.081 289.07 177.181 289.07C179.181 289.07 180.761 289.63 181.921 290.75C183.081 291.85 183.661 293.39 183.661 295.37V302C183.661 302.62 183.941 302.94 184.501 302.96V305C184.241 305.04 184.011 305.07 183.811 305.09C183.631 305.11 183.481 305.12 183.361 305.12C182.741 305.12 182.271 304.95 181.951 304.61C181.651 304.27 181.481 303.91 181.441 303.53L181.381 302.54C180.701 303.42 179.811 304.1 178.711 304.58C177.611 305.06 176.521 305.3 175.441 305.3C174.401 305.3 173.471 305.09 172.651 304.67C171.831 304.23 171.191 303.65 170.731 302.93C170.271 302.19 170.041 301.37 170.041 300.47ZM180.241 301.58C180.481 301.3 180.671 301.02 180.811 300.74C180.951 300.44 181.021 300.19 181.021 299.99V298.04C179.741 297.54 178.421 297.29 177.061 297.29C175.721 297.29 174.631 297.56 173.791 298.1C172.971 298.62 172.561 299.34 172.561 300.26C172.561 300.76 172.691 301.25 172.951 301.73C173.231 302.19 173.631 302.57 174.151 302.87C174.691 303.17 175.351 303.32 176.131 303.32C176.951 303.32 177.731 303.16 178.471 302.84C179.211 302.5 179.801 302.08 180.241 301.58ZM202.4 305.3C200.84 305.3 199.46 304.93 198.26 304.19C197.06 303.43 196.12 302.43 195.44 301.19C194.76 299.95 194.42 298.6 194.42 297.14C194.42 295.66 194.75 294.31 195.41 293.09C196.07 291.87 197 290.9 198.2 290.18C199.4 289.44 200.79 289.07 202.37 289.07C203.91 289.07 205.25 289.42 206.39 290.12C207.55 290.8 208.41 291.72 208.97 292.88L206.39 293.69C205.99 292.95 205.43 292.38 204.71 291.98C203.99 291.56 203.19 291.35 202.31 291.35C201.35 291.35 200.47 291.6 199.67 292.1C198.89 292.6 198.27 293.29 197.81 294.17C197.35 295.03 197.12 296.02 197.12 297.14C197.12 298.24 197.35 299.24 197.81 300.14C198.29 301.02 198.92 301.72 199.7 302.24C200.5 302.76 201.38 303.02 202.34 303.02C202.96 303.02 203.55 302.91 204.11 302.69C204.69 302.47 205.19 302.18 205.61 301.82C206.05 301.44 206.35 301.03 206.51 300.59L209.09 301.37C208.63 302.51 207.79 303.45 206.57 304.19C205.37 304.93 203.98 305.3 202.4 305.3ZM220.361 291.65C219.041 291.67 217.871 292.01 216.851 292.67C215.851 293.31 215.141 294.2 214.721 295.34V305H212.081V289.34H214.541V292.97C215.081 291.89 215.791 291.02 216.671 290.36C217.571 289.68 218.511 289.3 219.491 289.22C219.691 289.22 219.861 289.22 220.001 289.22C220.141 289.22 220.261 289.23 220.361 289.25V291.65ZM229.558 305.3C227.998 305.3 226.618 304.93 225.418 304.19C224.218 303.45 223.278 302.46 222.598 301.22C221.918 299.98 221.578 298.63 221.578 297.17C221.578 295.69 221.918 294.34 222.598 293.12C223.278 291.9 224.218 290.92 225.418 290.18C226.638 289.44 228.028 289.07 229.588 289.07C231.168 289.07 232.538 289.45 233.698 290.21C234.878 290.95 235.788 291.93 236.428 293.15C237.088 294.35 237.418 295.65 237.418 297.05C237.418 297.49 237.398 297.83 237.358 298.07H224.368C224.448 299.09 224.728 300 225.208 300.8C225.708 301.58 226.348 302.2 227.128 302.66C227.908 303.1 228.748 303.32 229.648 303.32C230.608 303.32 231.508 303.08 232.348 302.6C233.208 302.12 233.798 301.49 234.118 300.71L236.398 301.34C235.898 302.5 235.028 303.45 233.788 304.19C232.548 304.93 231.138 305.3 229.558 305.3ZM224.278 296.24H234.958C234.878 295.22 234.588 294.32 234.088 293.54C233.588 292.76 232.948 292.15 232.168 291.71C231.388 291.27 230.528 291.05 229.588 291.05C228.668 291.05 227.818 291.27 227.038 291.71C226.258 292.15 225.618 292.76 225.118 293.54C224.638 294.32 224.358 295.22 224.278 296.24ZM239.123 300.47C239.123 299.47 239.403 298.61 239.963 297.89C240.543 297.15 241.333 296.58 242.333 296.18C243.333 295.78 244.493 295.58 245.813 295.58C246.513 295.58 247.253 295.64 248.033 295.76C248.813 295.86 249.503 296.02 250.103 296.24V295.1C250.103 293.9 249.743 292.96 249.023 292.28C248.303 291.58 247.283 291.23 245.963 291.23C245.103 291.23 244.273 291.39 243.473 291.71C242.693 292.01 241.863 292.45 240.983 293.03L240.023 291.17C241.043 290.47 242.063 289.95 243.083 289.61C244.103 289.25 245.163 289.07 246.263 289.07C248.263 289.07 249.843 289.63 251.003 290.75C252.163 291.85 252.743 293.39 252.743 295.37V302C252.743 302.62 253.023 302.94 253.583 302.96V305C253.323 305.04 253.093 305.07 252.893 305.09C252.713 305.11 252.563 305.12 252.443 305.12C251.823 305.12 251.353 304.95 251.033 304.61C250.733 304.27 250.563 303.91 250.523 303.53L250.463 302.54C249.783 303.42 248.893 304.1 247.793 304.58C246.693 305.06 245.603 305.3 244.523 305.3C243.483 305.3 242.553 305.09 241.733 304.67C240.913 304.23 240.273 303.65 239.813 302.93C239.353 302.19 239.123 301.37 239.123 300.47ZM249.323 301.58C249.563 301.3 249.753 301.02 249.893 300.74C250.033 300.44 250.103 300.19 250.103 299.99V298.04C248.823 297.54 247.503 297.29 246.143 297.29C244.803 297.29 243.713 297.56 242.873 298.1C242.053 298.62 241.643 299.34 241.643 300.26C241.643 300.76 241.773 301.25 242.033 301.73C242.313 302.19 242.713 302.57 243.233 302.87C243.773 303.17 244.433 303.32 245.213 303.32C246.033 303.32 246.813 303.16 247.553 302.84C248.293 302.5 248.883 302.08 249.323 301.58ZM265.244 291.65C263.924 291.67 262.754 292.01 261.734 292.67C260.734 293.31 260.024 294.2 259.604 295.34V305H256.964V289.34H259.424V292.97C259.964 291.89 260.674 291.02 261.554 290.36C262.454 289.68 263.394 289.3 264.374 289.22C264.574 289.22 264.744 289.22 264.884 289.22C265.024 289.22 265.144 289.23 265.244 289.25V291.65ZM283.177 305.3C281.897 305.3 280.757 304.98 279.757 304.34C278.757 303.7 277.967 302.89 277.387 301.91V311.39H274.747V289.34H277.087V292.28C277.707 291.32 278.517 290.55 279.517 289.97C280.517 289.37 281.607 289.07 282.787 289.07C283.867 289.07 284.857 289.29 285.757 289.73C286.657 290.17 287.437 290.77 288.097 291.53C288.757 292.29 289.267 293.16 289.627 294.14C290.007 295.1 290.197 296.11 290.197 297.17C290.197 298.65 289.897 300.01 289.297 301.25C288.717 302.49 287.897 303.48 286.837 304.22C285.777 304.94 284.557 305.3 283.177 305.3ZM282.367 303.02C283.407 303.02 284.307 302.74 285.067 302.18C285.827 301.62 286.417 300.89 286.837 299.99C287.277 299.09 287.497 298.15 287.497 297.17C287.497 296.11 287.257 295.14 286.777 294.26C286.317 293.38 285.677 292.68 284.857 292.16C284.057 291.62 283.147 291.35 282.127 291.35C281.507 291.35 280.847 291.51 280.147 291.83C279.467 292.15 278.867 292.58 278.347 293.12C277.847 293.64 277.527 294.22 277.387 294.86V299.33C277.827 300.37 278.497 301.25 279.397 301.97C280.317 302.67 281.307 303.02 282.367 303.02ZM292.209 300.47C292.209 299.47 292.489 298.61 293.049 297.89C293.629 297.15 294.419 296.58 295.419 296.18C296.419 295.78 297.579 295.58 298.899 295.58C299.599 295.58 300.339 295.64 301.119 295.76C301.899 295.86 302.589 296.02 303.189 296.24V295.1C303.189 293.9 302.829 292.96 302.109 292.28C301.389 291.58 300.369 291.23 299.049 291.23C298.189 291.23 297.359 291.39 296.559 291.71C295.779 292.01 294.949 292.45 294.069 293.03L293.109 291.17C294.129 290.47 295.149 289.95 296.169 289.61C297.189 289.25 298.249 289.07 299.349 289.07C301.349 289.07 302.929 289.63 304.089 290.75C305.249 291.85 305.829 293.39 305.829 295.37V302C305.829 302.62 306.109 302.94 306.669 302.96V305C306.409 305.04 306.179 305.07 305.979 305.09C305.799 305.11 305.649 305.12 305.529 305.12C304.909 305.12 304.439 304.95 304.119 304.61C303.819 304.27 303.649 303.91 303.609 303.53L303.549 302.54C302.869 303.42 301.979 304.1 300.879 304.58C299.779 305.06 298.689 305.3 297.609 305.3C296.569 305.3 295.639 305.09 294.819 304.67C293.999 304.23 293.359 303.65 292.899 302.93C292.439 302.19 292.209 301.37 292.209 300.47ZM302.409 301.58C302.649 301.3 302.839 301.02 302.979 300.74C303.119 300.44 303.189 300.19 303.189 299.99V298.04C301.909 297.54 300.589 297.29 299.229 297.29C297.889 297.29 296.799 297.56 295.959 298.1C295.139 298.62 294.729 299.34 294.729 300.26C294.729 300.76 294.859 301.25 295.119 301.73C295.399 302.19 295.799 302.57 296.319 302.87C296.859 303.17 297.519 303.32 298.299 303.32C299.119 303.32 299.899 303.16 300.639 302.84C301.379 302.5 301.969 302.08 302.409 301.58ZM316.29 305.18C314.87 305.18 313.61 304.81 312.51 304.07C311.43 303.31 310.58 302.32 309.96 301.1C309.36 299.88 309.06 298.58 309.06 297.2C309.06 295.72 309.36 294.37 309.96 293.15C310.58 291.91 311.44 290.92 312.54 290.18C313.64 289.44 314.9 289.07 316.32 289.07C317.62 289.07 318.75 289.39 319.71 290.03C320.69 290.67 321.51 291.48 322.17 292.46V289.34H324.51V304.82C324.51 306.3 324.15 307.55 323.43 308.57C322.73 309.59 321.77 310.36 320.55 310.88C319.35 311.42 318.01 311.69 316.53 311.69C314.77 311.69 313.33 311.38 312.21 310.76C311.09 310.14 310.16 309.3 309.42 308.24L310.95 306.89C311.57 307.81 312.37 308.5 313.35 308.96C314.35 309.42 315.41 309.65 316.53 309.65C317.49 309.65 318.37 309.47 319.17 309.11C319.99 308.77 320.64 308.24 321.12 307.52C321.62 306.8 321.87 305.9 321.87 304.82V302.06C321.29 303.02 320.49 303.78 319.47 304.34C318.47 304.9 317.41 305.18 316.29 305.18ZM317.1 303.02C317.84 303.02 318.55 302.85 319.23 302.51C319.91 302.17 320.48 301.73 320.94 301.19C321.42 300.65 321.73 300.09 321.87 299.51V295.01C321.45 293.95 320.77 293.08 319.83 292.4C318.89 291.7 317.9 291.35 316.86 291.35C315.8 291.35 314.88 291.64 314.1 292.22C313.34 292.8 312.75 293.54 312.33 294.44C311.93 295.34 311.73 296.28 311.73 297.26C311.73 298.3 311.97 299.26 312.45 300.14C312.93 301 313.57 301.7 314.37 302.24C315.19 302.76 316.1 303.02 317.1 303.02ZM328.771 286.4V283.1H331.411V286.4H328.771ZM328.771 305V289.34H331.411V305H328.771ZM349.275 305H346.635V296.24C346.635 294.58 346.375 293.37 345.855 292.61C345.355 291.83 344.585 291.44 343.545 291.44C342.825 291.44 342.105 291.62 341.385 291.98C340.685 292.34 340.055 292.83 339.495 293.45C338.955 294.05 338.565 294.75 338.325 295.55V305H335.685V289.34H338.085V292.7C338.705 291.6 339.595 290.72 340.755 290.06C341.935 289.4 343.215 289.07 344.595 289.07C345.815 289.07 346.755 289.36 347.415 289.94C348.095 290.5 348.575 291.28 348.855 292.28C349.135 293.26 349.275 294.38 349.275 295.64V305ZM352.15 300.47C352.15 299.47 352.43 298.61 352.99 297.89C353.57 297.15 354.36 296.58 355.36 296.18C356.36 295.78 357.52 295.58 358.84 295.58C359.54 295.58 360.28 295.64 361.06 295.76C361.84 295.86 362.53 296.02 363.13 296.24V295.1C363.13 293.9 362.77 292.96 362.05 292.28C361.33 291.58 360.31 291.23 358.99 291.23C358.13 291.23 357.3 291.39 356.5 291.71C355.72 292.01 354.89 292.45 354.01 293.03L353.05 291.17C354.07 290.47 355.09 289.95 356.11 289.61C357.13 289.25 358.19 289.07 359.29 289.07C361.29 289.07 362.87 289.63 364.03 290.75C365.19 291.85 365.77 293.39 365.77 295.37V302C365.77 302.62 366.05 302.94 366.61 302.96V305C366.35 305.04 366.12 305.07 365.92 305.09C365.74 305.11 365.59 305.12 365.47 305.12C364.85 305.12 364.38 304.95 364.06 304.61C363.76 304.27 363.59 303.91 363.55 303.53L363.49 302.54C362.81 303.42 361.92 304.1 360.82 304.58C359.72 305.06 358.63 305.3 357.55 305.3C356.51 305.3 355.58 305.09 354.76 304.67C353.94 304.23 353.3 303.65 352.84 302.93C352.38 302.19 352.15 301.37 352.15 300.47ZM362.35 301.58C362.59 301.3 362.78 301.02 362.92 300.74C363.06 300.44 363.13 300.19 363.13 299.99V298.04C361.85 297.54 360.53 297.29 359.17 297.29C357.83 297.29 356.74 297.56 355.9 298.1C355.08 298.62 354.67 299.34 354.67 300.26C354.67 300.76 354.8 301.25 355.06 301.73C355.34 302.19 355.74 302.57 356.26 302.87C356.8 303.17 357.46 303.32 358.24 303.32C359.06 303.32 359.84 303.16 360.58 302.84C361.32 302.5 361.91 302.08 362.35 301.58ZM375.361 305.3C374.061 305.3 372.841 305.09 371.701 304.67C370.561 304.23 369.581 303.58 368.761 302.72L369.781 300.86C370.681 301.7 371.581 302.3 372.481 302.66C373.381 303.02 374.301 303.2 375.241 303.2C376.321 303.2 377.201 303 377.881 302.6C378.561 302.18 378.901 301.57 378.901 300.77C378.901 300.19 378.721 299.76 378.361 299.48C378.021 299.2 377.531 298.97 376.891 298.79C376.251 298.59 375.491 298.37 374.611 298.13C372.991 297.67 371.751 297.13 370.891 296.51C370.051 295.87 369.631 294.94 369.631 293.72C369.631 292.24 370.191 291.1 371.311 290.3C372.451 289.48 373.901 289.07 375.661 289.07C378.021 289.07 379.881 289.78 381.241 291.2L380.041 293.03C378.821 291.77 377.311 291.14 375.511 291.14C374.971 291.14 374.441 291.21 373.921 291.35C373.401 291.47 372.971 291.7 372.631 292.04C372.291 292.36 372.121 292.82 372.121 293.42C372.121 294.16 372.421 294.69 373.021 295.01C373.621 295.33 374.501 295.66 375.661 296C376.841 296.34 377.861 296.68 378.721 297.02C379.601 297.36 380.281 297.8 380.761 298.34C381.241 298.88 381.481 299.63 381.481 300.59C381.481 302.07 380.921 303.23 379.801 304.07C378.681 304.89 377.201 305.3 375.361 305.3ZM410.998 289.34H413.548L406.888 305H404.578L401.548 297.62L398.548 305H396.238L389.578 289.34H392.098L397.498 302.39L400.018 295.97L397.378 289.37H399.688L401.548 294.35L403.408 289.37H405.718L403.108 295.97L405.628 302.39L410.998 289.34ZM422.419 305.3C420.859 305.3 419.479 304.93 418.279 304.19C417.079 303.45 416.139 302.46 415.459 301.22C414.779 299.98 414.439 298.63 414.439 297.17C414.439 295.69 414.779 294.34 415.459 293.12C416.139 291.9 417.079 290.92 418.279 290.18C419.499 289.44 420.889 289.07 422.449 289.07C424.029 289.07 425.399 289.45 426.559 290.21C427.739 290.95 428.649 291.93 429.289 293.15C429.949 294.35 430.279 295.65 430.279 297.05C430.279 297.49 430.259 297.83 430.219 298.07H417.229C417.309 299.09 417.589 300 418.069 300.8C418.569 301.58 419.209 302.2 419.989 302.66C420.769 303.1 421.609 303.32 422.509 303.32C423.469 303.32 424.369 303.08 425.209 302.6C426.069 302.12 426.659 301.49 426.979 300.71L429.259 301.34C428.759 302.5 427.889 303.45 426.649 304.19C425.409 304.93 423.999 305.3 422.419 305.3ZM417.139 296.24H427.819C427.739 295.22 427.449 294.32 426.949 293.54C426.449 292.76 425.809 292.15 425.029 291.71C424.249 291.27 423.389 291.05 422.449 291.05C421.529 291.05 420.679 291.27 419.899 291.71C419.119 292.15 418.479 292.76 417.979 293.54C417.499 294.32 417.219 295.22 417.139 296.24ZM441.254 305.3C440.034 305.3 438.924 305 437.924 304.4C436.924 303.8 436.134 303.02 435.554 302.06V305H433.214V283.1H435.854V292.46C436.514 291.44 437.324 290.62 438.284 290C439.244 289.38 440.364 289.07 441.644 289.07C442.724 289.07 443.694 289.3 444.554 289.76C445.414 290.2 446.144 290.81 446.744 291.59C447.364 292.35 447.834 293.22 448.154 294.2C448.494 295.16 448.664 296.17 448.664 297.23C448.664 298.69 448.334 300.04 447.674 301.28C447.034 302.5 446.154 303.48 445.034 304.22C443.914 304.94 442.654 305.3 441.254 305.3ZM440.594 303.02C441.654 303.02 442.584 302.75 443.384 302.21C444.184 301.65 444.814 300.93 445.274 300.05C445.734 299.17 445.964 298.23 445.964 297.23C445.964 296.21 445.744 295.25 445.304 294.35C444.884 293.45 444.284 292.73 443.504 292.19C442.744 291.63 441.854 291.35 440.834 291.35C439.714 291.35 438.714 291.71 437.834 292.43C436.974 293.15 436.314 294.01 435.854 295.01V299.54C435.994 300.2 436.314 300.8 436.814 301.34C437.334 301.86 437.934 302.27 438.614 302.57C439.314 302.87 439.974 303.02 440.594 303.02Z" fill="white"/>
<rect x="40" y="332" width="250" height="70" fill="#FFFDFD"/>
<path d="M102.98 376.62V378H88.79V356.7H102.71V358.08H90.32V366.45H101.15V367.77H90.32V376.62H102.98ZM119.283 378H117.783V369.3C117.783 367.3 117.493 365.84 116.913 364.92C116.333 363.98 115.433 363.51 114.213 363.51C113.333 363.51 112.473 363.72 111.633 364.14C110.793 364.56 110.053 365.14 109.413 365.88C108.773 366.6 108.313 367.42 108.033 368.34V378H106.533V362.4H107.943V366.12C108.563 364.94 109.483 363.98 110.703 363.24C111.943 362.5 113.253 362.13 114.633 362.13C116.333 362.13 117.533 362.73 118.233 363.93C118.933 365.13 119.283 366.83 119.283 369.03V378ZM130.632 377.25C130.492 377.33 130.122 377.51 129.522 377.79C128.922 378.05 128.202 378.18 127.362 378.18C126.542 378.18 125.822 377.94 125.202 377.46C124.602 376.98 124.302 376.29 124.302 375.39V363.63H122.112V362.4H124.302V357.06H125.802V362.4H129.432V363.63H125.802V375.03C125.842 375.61 126.052 376.05 126.432 376.35C126.812 376.63 127.252 376.77 127.752 376.77C128.372 376.77 128.912 376.67 129.372 376.47C129.832 376.25 130.102 376.11 130.182 376.05L130.632 377.25ZM140.661 363.75C139.261 363.79 138.031 364.21 136.971 365.01C135.931 365.79 135.201 366.87 134.781 368.25V378H133.281V362.4H134.721V366.24C135.261 365.16 135.981 364.27 136.881 363.57C137.781 362.87 138.731 362.47 139.731 362.37C139.931 362.37 140.101 362.37 140.241 362.37C140.401 362.35 140.541 362.34 140.661 362.34V363.75ZM142.099 373.5C142.099 372.58 142.369 371.77 142.909 371.07C143.469 370.37 144.239 369.83 145.219 369.45C146.219 369.05 147.359 368.85 148.639 368.85C149.439 368.85 150.269 368.92 151.129 369.06C152.009 369.2 152.779 369.39 153.439 369.63V368.16C153.439 366.72 153.019 365.57 152.179 364.71C151.339 363.85 150.199 363.42 148.759 363.42C147.979 363.42 147.169 363.58 146.329 363.9C145.489 364.22 144.629 364.68 143.749 365.28L143.119 364.2C145.159 362.82 147.089 362.13 148.909 362.13C150.749 362.13 152.209 362.68 153.289 363.78C154.389 364.88 154.939 366.38 154.939 368.28V376.02C154.939 376.5 155.159 376.75 155.599 376.77V378C155.219 378.04 154.969 378.05 154.849 378.03C154.469 377.99 154.169 377.83 153.949 377.55C153.749 377.27 153.639 376.98 153.619 376.68V375.45C152.899 376.35 151.969 377.05 150.829 377.55C149.709 378.05 148.529 378.3 147.289 378.3C146.309 378.3 145.419 378.09 144.619 377.67C143.839 377.23 143.219 376.65 142.759 375.93C142.319 375.21 142.099 374.4 142.099 373.5ZM152.839 374.79C153.239 374.29 153.439 373.82 153.439 373.38V370.8C151.999 370.24 150.449 369.96 148.789 369.96C147.209 369.96 145.939 370.28 144.979 370.92C144.019 371.54 143.539 372.37 143.539 373.41C143.539 374.07 143.709 374.68 144.049 375.24C144.389 375.8 144.859 376.25 145.459 376.59C146.079 376.93 146.789 377.1 147.589 377.1C148.709 377.1 149.739 376.89 150.679 376.47C151.619 376.03 152.339 375.47 152.839 374.79ZM165.917 373.5C165.917 372.58 166.187 371.77 166.727 371.07C167.287 370.37 168.057 369.83 169.037 369.45C170.037 369.05 171.177 368.85 172.457 368.85C173.257 368.85 174.087 368.92 174.947 369.06C175.827 369.2 176.597 369.39 177.257 369.63V368.16C177.257 366.72 176.837 365.57 175.997 364.71C175.157 363.85 174.017 363.42 172.577 363.42C171.797 363.42 170.987 363.58 170.147 363.9C169.307 364.22 168.447 364.68 167.567 365.28L166.937 364.2C168.977 362.82 170.907 362.13 172.727 362.13C174.567 362.13 176.027 362.68 177.107 363.78C178.207 364.88 178.757 366.38 178.757 368.28V376.02C178.757 376.5 178.977 376.75 179.417 376.77V378C179.037 378.04 178.787 378.05 178.667 378.03C178.287 377.99 177.987 377.83 177.767 377.55C177.567 377.27 177.457 376.98 177.437 376.68V375.45C176.717 376.35 175.787 377.05 174.647 377.55C173.527 378.05 172.347 378.3 171.107 378.3C170.127 378.3 169.237 378.09 168.437 377.67C167.657 377.23 167.037 376.65 166.577 375.93C166.137 375.21 165.917 374.4 165.917 373.5ZM176.657 374.79C177.057 374.29 177.257 373.82 177.257 373.38V370.8C175.817 370.24 174.267 369.96 172.607 369.96C171.027 369.96 169.757 370.28 168.797 370.92C167.837 371.54 167.357 372.37 167.357 373.41C167.357 374.07 167.527 374.68 167.867 375.24C168.207 375.8 168.677 376.25 169.277 376.59C169.897 376.93 170.607 377.1 171.407 377.1C172.527 377.1 173.557 376.89 174.497 376.47C175.437 376.03 176.157 375.47 176.657 374.79ZM196.07 378H194.57V369.3C194.57 365.44 193.28 363.51 190.7 363.51C189.86 363.51 189.04 363.72 188.24 364.14C187.44 364.56 186.73 365.14 186.11 365.88C185.51 366.6 185.08 367.42 184.82 368.34V378H183.32V356.1H184.82V366.12C185.46 364.9 186.35 363.93 187.49 363.21C188.63 362.49 189.84 362.13 191.12 362.13C192.86 362.13 194.12 362.75 194.9 363.99C195.68 365.21 196.07 366.89 196.07 369.03V378ZM207.146 378.3C205.686 378.3 204.376 377.93 203.216 377.19C202.076 376.45 201.176 375.47 200.516 374.25C199.856 373.03 199.526 371.69 199.526 370.23C199.526 369.13 199.716 368.1 200.096 367.14C200.476 366.16 201.016 365.3 201.716 364.56C202.416 363.8 203.226 363.21 204.146 362.79C205.066 362.35 206.066 362.13 207.146 362.13C208.226 362.13 209.226 362.35 210.146 362.79C211.066 363.21 211.866 363.8 212.546 364.56C213.246 365.3 213.786 366.16 214.166 367.14C214.566 368.1 214.766 369.13 214.766 370.23C214.766 371.69 214.426 373.03 213.746 374.25C213.086 375.47 212.176 376.45 211.016 377.19C209.876 377.93 208.586 378.3 207.146 378.3ZM201.026 370.29C201.026 371.51 201.296 372.63 201.836 373.65C202.396 374.65 203.136 375.45 204.056 376.05C204.976 376.65 205.996 376.95 207.116 376.95C208.236 376.95 209.256 376.65 210.176 376.05C211.116 375.43 211.856 374.61 212.396 373.59C212.956 372.57 213.236 371.44 213.236 370.2C213.236 368.98 212.956 367.86 212.396 366.84C211.856 365.82 211.116 365.01 210.176 364.41C209.256 363.79 208.246 363.48 207.146 363.48C206.026 363.48 205.006 363.79 204.086 364.41C203.166 365.03 202.426 365.86 201.866 366.9C201.306 367.92 201.026 369.05 201.026 370.29ZM225.74 363.75C224.34 363.79 223.11 364.21 222.05 365.01C221.01 365.79 220.28 366.87 219.86 368.25V378H218.36V362.4H219.8V366.24C220.34 365.16 221.06 364.27 221.96 363.57C222.86 362.87 223.81 362.47 224.81 362.37C225.01 362.37 225.18 362.37 225.32 362.37C225.48 362.35 225.62 362.34 225.74 362.34V363.75ZM227.177 373.5C227.177 372.58 227.447 371.77 227.987 371.07C228.547 370.37 229.317 369.83 230.297 369.45C231.297 369.05 232.437 368.85 233.717 368.85C234.517 368.85 235.347 368.92 236.207 369.06C237.087 369.2 237.857 369.39 238.517 369.63V368.16C238.517 366.72 238.097 365.57 237.257 364.71C236.417 363.85 235.277 363.42 233.837 363.42C233.057 363.42 232.247 363.58 231.407 363.9C230.567 364.22 229.707 364.68 228.827 365.28L228.197 364.2C230.237 362.82 232.167 362.13 233.987 362.13C235.827 362.13 237.287 362.68 238.367 363.78C239.467 364.88 240.017 366.38 240.017 368.28V376.02C240.017 376.5 240.237 376.75 240.677 376.77V378C240.297 378.04 240.047 378.05 239.927 378.03C239.547 377.99 239.247 377.83 239.027 377.55C238.827 377.27 238.717 376.98 238.697 376.68V375.45C237.977 376.35 237.047 377.05 235.907 377.55C234.787 378.05 233.607 378.3 232.367 378.3C231.387 378.3 230.497 378.09 229.697 377.67C228.917 377.23 228.297 376.65 227.837 375.93C227.397 375.21 227.177 374.4 227.177 373.5ZM237.917 374.79C238.317 374.29 238.517 373.82 238.517 373.38V370.8C237.077 370.24 235.527 369.96 233.867 369.96C232.287 369.96 231.017 370.28 230.057 370.92C229.097 371.54 228.617 372.37 228.617 373.41C228.617 374.07 228.787 374.68 229.127 375.24C229.467 375.8 229.937 376.25 230.537 376.59C231.157 376.93 231.867 377.1 232.667 377.1C233.787 377.1 234.817 376.89 235.757 376.47C236.697 376.03 237.417 375.47 237.917 374.79Z" fill="#4776E6"/>
</g>
<defs>
<linearGradient id="paint0_linear" x1="0" y1="300" x2="1200" y2="300" gradientUnits="userSpaceOnUse">
<stop stop-color="#4776E6"/>
<stop offset="1" stop-color="#8E54E9"/>
</linearGradient>
<clipPath id="clip0">
<rect width="1200" height="600" fill="white"/>
</clipPath>
</defs>
</svg>
