<svg width="591" height="446" viewBox="0 0 591 446" fill="none" xmlns="http://www.w3.org/2000/svg">
<path d="M303.685 412.079L524.941 292.057C526.536 291.227 527.878 289.983 528.828 288.455C529.778 286.928 530.301 285.172 530.342 283.373C530.383 281.574 529.94 279.797 529.06 278.228C528.18 276.658 526.895 275.355 525.34 274.453L310.851 146.072C309.21 145.097 307.342 144.57 305.434 144.544C303.525 144.518 301.644 144.994 299.977 145.924L65.9261 277.16C64.3336 278.021 63.0033 279.297 62.0761 280.853C61.1489 282.409 60.6594 284.187 60.6594 285.999C60.6594 287.811 61.1489 289.59 62.0761 291.146C63.0033 292.702 64.3336 293.978 65.9261 294.839L274.623 411.872C279.06 414.349 284.048 415.666 289.128 415.702C294.207 415.739 299.214 414.493 303.685 412.079V412.079Z" fill="#00275E"/>
<path d="M266.231 233.814C266.231 233.814 221.477 257.736 210.884 314.81C210.884 314.81 254.47 324.056 312.831 275.725" fill="#EB773A"/>
<path d="M265.669 241.093C265.669 241.093 246.58 258.239 241.202 270.34C235.824 282.441 228.806 300.15 228.806 300.15C228.806 300.15 262.419 303.02 294.023 283.655C325.626 264.289 295.5 228.074 265.669 241.093Z" fill="#FFAE46"/>
<path d="M284.64 235.072C283.488 237.01 263.822 248.105 260.143 264.112L266.556 259.245C266.556 259.245 255.652 274.542 251.027 283.344C251.027 283.344 277.622 272.737 276.795 273.373L269.274 279.083C269.274 279.083 289.501 278.654 303.257 266.346C317.012 254.037 298.1 232.572 298.1 232.572L284.64 235.072Z" fill="#FAD374"/>
<path d="M343.992 234.924C343.992 234.924 340.519 257.484 333.088 263.032C325.656 268.58 301.528 286.968 301.528 286.968L297.524 281.672C297.524 281.672 314.161 251.981 317.101 238.874C320.041 225.766 343.992 234.924 343.992 234.924Z" fill="#68E1FD"/>
<path opacity="0.61" d="M343.992 234.924C343.992 234.924 340.519 257.484 333.088 263.032C325.656 268.58 301.528 286.968 301.528 286.968L297.524 281.672C297.524 281.672 314.161 251.981 317.101 238.874C320.041 225.766 343.992 234.924 343.992 234.924Z" fill="#363636"/>
<path d="M319.967 203.176C319.967 203.176 297.332 200.425 289.915 206.135C282.498 211.845 258.356 230.071 258.356 230.071L262.36 235.368C262.36 235.368 295.411 227.364 308.812 228.089C322.213 228.814 319.967 203.176 319.967 203.176Z" fill="#68E1FD"/>
<path opacity="0.61" d="M319.967 203.176C319.967 203.176 297.332 200.425 289.915 206.135C282.498 211.845 258.356 230.071 258.356 230.071L262.36 235.368C262.36 235.368 295.411 227.364 308.812 228.089C322.213 228.814 319.967 203.176 319.967 203.176Z" fill="#363636"/>
<path d="M428.637 165.304C434.621 155.945 439.453 145.896 443.028 135.376C443.028 135.376 429.879 135.524 410.228 141.383C411.794 151.398 419.787 159.387 428.637 165.304Z" fill="#68E1FD"/>
<path d="M375.923 205.964C382.167 201.227 382.87 191.628 377.494 184.523C372.118 177.418 362.698 175.498 356.454 180.235C350.21 184.972 349.507 194.571 354.883 201.676C360.259 208.781 369.679 210.701 375.923 205.964Z" fill="#68E1FD"/>
<path d="M488.949 99.96C488.949 99.96 365.135 130.79 302.223 222.068C302.223 222.068 287.448 237.853 294.584 246.626C301.72 255.398 325.508 248.416 325.508 248.416C325.508 248.416 403.683 226.195 488.949 99.96Z" fill="#68E1FD"/>
<path d="M302.223 222.068C302.223 222.068 286.62 220.174 281.538 224.065C276.455 227.956 259.789 240.56 259.789 240.56L262.552 244.214C262.552 244.214 285.335 238.696 294.554 239.199C303.774 239.702 302.223 222.068 302.223 222.068Z" fill="#68E1FD"/>
<path d="M321.016 246.907C321.016 246.907 318.623 262.455 313.496 266.331C308.369 270.207 291.747 282.826 291.747 282.826L288.999 279.216C288.999 279.216 300.464 258.757 302.489 249.718C304.513 240.679 321.016 246.907 321.016 246.907Z" fill="#68E1FD"/>
<path opacity="0.29" d="M302.223 222.068C302.223 222.068 286.62 220.174 281.538 224.065C276.455 227.956 259.789 240.56 259.789 240.56L262.552 244.214C262.552 244.214 285.335 238.696 294.554 239.199C303.774 239.702 302.223 222.068 302.223 222.068Z" fill="#363636"/>
<path opacity="0.29" d="M321.016 246.907C321.016 246.907 318.623 262.455 313.496 266.331C308.369 270.207 291.747 282.826 291.747 282.826L288.999 279.216C288.999 279.216 300.464 258.757 302.489 249.718C304.513 240.679 321.016 246.907 321.016 246.907Z" fill="#363636"/>
<path d="M428.8 122.195C428.8 122.195 428.372 143.158 450.534 150.925L437.68 165.541C437.68 165.541 409.844 149.874 414.158 129.296L428.8 122.195Z" fill="#68E1FD"/>
<path d="M349.296 170.793C349.296 170.793 349.547 206.298 382.613 216.402L358.057 233.208C358.057 233.208 322.597 220.884 329.172 189.3L349.296 170.793Z" fill="#68E1FD"/>
<path d="M409.064 165.674C411.262 164.006 411.694 160.87 410.029 158.669C408.363 156.467 405.231 156.035 403.032 157.703C400.834 159.37 400.402 162.507 402.068 164.708C403.733 166.909 406.866 167.341 409.064 165.674Z" fill="#68E1FD"/>
<path d="M390.929 191.865C396.686 187.541 397.853 179.363 393.535 173.598C389.217 167.833 381.049 166.664 375.291 170.988C369.533 175.312 368.366 183.49 372.685 189.255C377.003 195.02 385.171 196.189 390.929 191.865Z" fill="#68E1FD"/>
<path opacity="0.61" d="M428.8 122.195C428.8 122.195 428.372 143.158 450.534 150.925L437.68 165.541C437.68 165.541 409.844 149.874 414.158 129.296L428.8 122.195Z" fill="#606060"/>
<path opacity="0.61" d="M349.296 170.793C349.296 170.793 349.547 206.298 382.613 216.402L358.057 233.208C358.057 233.208 322.597 220.884 329.172 189.3L349.296 170.793Z" fill="#606060"/>
<path opacity="0.61" d="M409.064 165.674C411.262 164.006 411.694 160.87 410.029 158.669C408.363 156.467 405.231 156.035 403.032 157.703C400.834 159.37 400.402 162.507 402.068 164.708C403.733 166.909 406.866 167.341 409.064 165.674Z" fill="#606060"/>
<path opacity="0.61" d="M390.929 191.865C396.686 187.541 397.853 179.363 393.535 173.598C389.217 167.833 381.049 166.664 375.291 170.988C369.533 175.312 368.366 183.49 372.685 189.255C377.003 195.02 385.171 196.189 390.929 191.865Z" fill="#606060"/>
<path d="M452.558 256.922C452.166 256.922 451.791 257.078 451.514 257.355C451.236 257.633 451.081 258.009 451.081 258.402C451.081 258.794 451.236 259.17 451.514 259.448C451.791 259.725 452.166 259.881 452.558 259.881C452.95 259.881 453.326 259.725 453.603 259.448C453.88 259.17 454.036 258.794 454.036 258.402C454.036 258.009 453.88 257.633 453.603 257.355C453.326 257.078 452.95 256.922 452.558 256.922Z" fill="white"/>
<path d="M377.708 315.846V316.793C377.708 317.185 377.864 317.561 378.141 317.839C378.418 318.116 378.794 318.272 379.186 318.272C379.578 318.272 379.953 318.116 380.23 317.839C380.507 317.561 380.663 317.185 380.663 316.793V315.846C380.663 315.453 380.507 315.077 380.23 314.8C379.953 314.522 379.578 314.366 379.186 314.366C378.794 314.366 378.418 314.522 378.141 314.8C377.864 315.077 377.708 315.453 377.708 315.846Z" fill="white"/>
<path d="M274.224 339.398V340.344C274.224 340.737 274.38 341.113 274.657 341.39C274.934 341.668 275.31 341.824 275.701 341.824C276.093 341.824 276.469 341.668 276.746 341.39C277.023 341.113 277.179 340.737 277.179 340.344V339.398C277.179 339.005 277.023 338.629 276.746 338.351C276.469 338.074 276.093 337.918 275.701 337.918C275.31 337.918 274.934 338.074 274.657 338.351C274.38 338.629 274.224 339.005 274.224 339.398Z" fill="white"/>
<path d="M370.72 267.278C370.328 267.278 369.952 267.434 369.675 267.711C369.398 267.989 369.242 268.365 369.242 268.757C369.242 269.15 369.398 269.526 369.675 269.803C369.952 270.081 370.328 270.237 370.72 270.237C371.111 270.237 371.487 270.081 371.764 269.803C372.041 269.526 372.197 269.15 372.197 268.757C372.197 268.365 372.041 267.989 371.764 267.711C371.487 267.434 371.111 267.278 370.72 267.278Z" fill="white"/>
<path d="M193.863 264.423C193.471 264.423 193.095 264.578 192.818 264.856C192.541 265.133 192.385 265.51 192.385 265.902C192.385 266.294 192.541 266.671 192.818 266.948C193.095 267.225 193.471 267.381 193.863 267.381C194.255 267.381 194.63 267.225 194.908 266.948C195.185 266.671 195.34 266.294 195.34 265.902C195.34 265.51 195.185 265.133 194.908 264.856C194.63 264.578 194.255 264.423 193.863 264.423Z" fill="white"/>
<path d="M127.464 268.757V269.704C127.464 270.096 127.62 270.473 127.897 270.75C128.174 271.027 128.55 271.183 128.941 271.183C129.333 271.183 129.709 271.027 129.986 270.75C130.263 270.473 130.419 270.096 130.419 269.704V268.757C130.419 268.365 130.263 267.989 129.986 267.711C129.709 267.434 129.333 267.278 128.941 267.278C128.55 267.278 128.174 267.434 127.897 267.711C127.62 267.989 127.464 268.365 127.464 268.757Z" fill="white"/>
<path d="M159.053 315.313C158.661 315.313 158.285 315.469 158.008 315.747C157.731 316.024 157.575 316.4 157.575 316.793C157.575 317.185 157.731 317.561 158.008 317.839C158.285 318.116 158.661 318.272 159.053 318.272C159.445 318.272 159.821 318.116 160.098 317.839C160.375 317.561 160.53 317.185 160.53 316.793C160.53 316.4 160.375 316.024 160.098 315.747C159.821 315.469 159.445 315.313 159.053 315.313Z" fill="white"/>
<path d="M207.973 231.477C207.581 231.477 207.205 231.633 206.928 231.91C206.651 232.188 206.495 232.564 206.495 232.956C206.495 233.349 206.651 233.725 206.928 234.002C207.205 234.28 207.581 234.436 207.973 234.436C208.365 234.436 208.741 234.28 209.018 234.002C209.295 233.725 209.45 233.349 209.45 232.956C209.45 232.564 209.295 232.188 209.018 231.91C208.741 231.633 208.365 231.477 207.973 231.477Z" fill="white"/>
<path d="M280.4 184.388C280.008 184.388 279.632 184.544 279.355 184.821C279.078 185.099 278.922 185.475 278.922 185.868C278.922 186.26 279.078 186.636 279.355 186.914C279.632 187.191 280.008 187.347 280.4 187.347C280.792 187.347 281.168 187.191 281.445 186.914C281.722 186.636 281.878 186.26 281.878 185.868C281.878 185.475 281.722 185.099 281.445 184.821C281.168 184.544 280.792 184.388 280.4 184.388Z" fill="white"/>
<path d="M324.622 369C324.23 369 323.854 369.156 323.577 369.433C323.3 369.711 323.144 370.087 323.144 370.479C323.144 370.872 323.3 371.248 323.577 371.525C323.854 371.803 324.23 371.959 324.622 371.959C325.013 371.959 325.389 371.803 325.666 371.525C325.943 371.248 326.099 370.872 326.099 370.479C326.099 370.087 325.943 369.711 325.666 369.433C325.389 369.156 325.013 369 324.622 369Z" fill="white"/>
<path d="M422.447 285.844C412.946 285.844 412.917 300.638 422.447 300.638C431.977 300.638 431.977 285.844 422.447 285.844Z" fill="#FFAE46"/>
<path d="M157.176 277.367C147.676 277.367 147.647 292.161 157.176 292.161C166.706 292.161 166.692 277.367 157.176 277.367Z" fill="#FFAE46"/>
<path d="M298.795 374.666C297.41 373.279 295.531 372.5 293.572 372.5C291.613 372.5 289.734 373.279 288.349 374.666C286.991 376.073 286.219 377.946 286.192 379.903V380.85C286.213 382.808 286.986 384.683 288.349 386.087C289.734 387.473 291.613 388.252 293.572 388.252C295.531 388.252 297.41 387.473 298.795 386.087C300.153 384.679 300.924 382.807 300.952 380.85V379.903C300.93 377.945 300.158 376.07 298.795 374.666V374.666Z" fill="#00AEE1"/>
<path d="M163.633 176.755C181.422 176.755 195.843 162.316 195.843 144.504C195.843 126.693 181.422 112.254 163.633 112.254C145.844 112.254 131.424 126.693 131.424 144.504C131.424 162.316 145.844 176.755 163.633 176.755Z" fill="#68E1FD"/>
<path d="M189.829 126.766C193.228 125.828 196.682 125.107 200.172 124.607C201.924 124.34 203.69 124.172 205.461 124.104C207.3 124 209.144 124.109 210.957 124.429C212.006 124.607 213.01 124.989 213.912 125.553C214.456 125.912 214.919 126.381 215.272 126.929C215.642 127.527 215.855 128.209 215.892 128.912C215.905 130.073 215.637 131.22 215.109 132.255C214.691 133.135 214.197 133.976 213.632 134.77C211.391 137.651 208.801 140.24 205.919 142.477C200.388 146.886 194.514 150.843 188.352 154.312C182.255 157.842 175.977 161.046 169.543 163.914C163.108 166.829 156.501 169.348 149.759 171.458C146.362 172.544 142.91 173.448 139.417 174.166C135.838 174.952 132.201 175.452 128.542 175.66C126.668 175.756 124.789 175.682 122.928 175.438C120.938 175.212 119 174.652 117.195 173.781C116.204 173.304 115.296 172.669 114.506 171.902C113.62 171.025 112.983 169.927 112.659 168.722C112.374 167.57 112.374 166.367 112.659 165.215C112.902 164.215 113.275 163.25 113.767 162.345C115.715 159.197 118.218 156.43 121.155 154.179C123.867 151.93 126.769 149.921 129.828 148.173C127.294 150.517 124.877 152.986 122.588 155.57C120.298 158.015 118.4 160.799 116.959 163.825C116.379 164.978 116.242 166.305 116.575 167.553C116.765 168.016 117.07 168.423 117.461 168.736C117.967 169.13 118.524 169.454 119.116 169.698C122.055 170.673 125.177 170.972 128.247 170.571C134.939 169.792 141.524 168.274 147.883 166.044C154.384 163.943 160.722 161.31 167.09 158.647C179.691 153.242 191.752 146.654 203.112 138.971C205.84 137.084 208.361 134.912 210.632 132.492C211.136 131.925 211.591 131.316 211.992 130.672C212.306 130.177 212.517 129.623 212.612 129.045C212.626 128.847 212.586 128.65 212.498 128.473C212.409 128.296 212.276 128.146 212.11 128.039C211.552 127.632 210.927 127.327 210.263 127.136C206.995 126.349 203.632 126.031 200.275 126.189C196.773 126.204 193.301 126.411 189.829 126.766Z" fill="#8CC63F"/>
</svg>
