<svg width="429" height="353" viewBox="0 0 429 353" fill="none" xmlns="http://www.w3.org/2000/svg">
<path d="M90 39.5C58.07 33.6915 56.4538 89.8659 24 90C-8.8891 90.1359 -1.48917 38.5216 9.18435 -1.5H429.5V337.535C427.022 339.757 424.054 341.053 420.5 341C400.239 340.696 413.068 299.803 393 297C368.889 293.632 382.282 338.678 361 350.5C319.569 373.515 373.005 222.609 327 234C297.43 241.322 309.322 285.779 281 297C230.165 317.14 323.67 156.468 269 157.5C234.63 158.149 235.876 213.932 201.5 214C150.497 214.101 211.278 85.2122 160.5 90C128.323 93.0339 132.682 149.972 100.5 147C58.4975 143.122 131.5 47.0495 90 39.5Z" fill="white"/>
</svg>
